<?xml version="1.0" standalone="no"?>
<!DOCTYPE svg PUBLIC "-//W3C//DTD SVG 20010904//EN"
 "http://www.w3.org/TR/2001/REC-SVG-20010904/DTD/svg10.dtd">
<svg version="1.0" xmlns="http://www.w3.org/2000/svg"
 width="300.000000pt" height="573.000000pt" viewBox="0 0 300.000000 573.000000"
 preserveAspectRatio="xMidYMid meet">
<metadata>
Created by potrace 1.10, written by Peter Selinger 2001-2011
</metadata>
<g transform="translate(0.000000,573.000000) scale(0.100000,-0.100000)"
fill="#000000" stroke="none">
<path d="M1650 5694 c-102 -19 -257 -44 -345 -57 l-160 -24 -136 -82 -136 -82
-29 -175 -29 -176 -125 -63 -126 -63 -21 -328 -22 -328 -165 -165 -166 -166 0
-437 0 -437 -96 -182 -96 -182 34 -32 c29 -29 330 -307 351 -325 5 -4 -43 -91
-107 -193 -64 -101 -116 -192 -116 -201 0 -9 32 -195 71 -413 l71 -398 170
-430 c93 -236 196 -496 229 -577 58 -138 63 -146 93 -152 17 -4 204 -9 416
-12 414 -7 709 6 1040 46 195 23 462 67 470 78 3 4 4 125 2 270 l-4 262 -104
0 c-57 0 -104 3 -104 7 0 4 111 278 246 609 l245 601 -44 214 -43 214 -200 25
-199 26 3 189 c1 105 9 320 17 479 l14 288 -126 412 c-69 226 -125 425 -124
441 0 17 20 142 44 278 l43 248 -43 62 c-24 33 -43 69 -43 78 0 10 14 76 31
148 l31 131 -32 188 c-17 103 -33 188 -34 189 -1 2 -41 6 -89 9 l-86 7 -125
108 c-69 60 -133 108 -143 108 -10 -1 -101 -17 -203 -35z m-321 -216 l85 -23
49 -67 c27 -38 55 -68 61 -68 6 0 53 14 103 31 l93 31 102 -15 c92 -14 106
-19 129 -45 l27 -30 68 39 c53 30 78 39 108 37 39 -3 40 -4 52 -58 22 -95 26
-90 -77 -90 l-92 0 37 -42 c56 -65 61 -80 46 -133 -7 -25 -18 -44 -24 -42 -6
2 -41 12 -78 22 l-67 18 -56 -43 c-32 -24 -54 -49 -51 -56 3 -7 24 -79 47
-161 23 -81 44 -154 46 -160 4 -10 -24 -13 -118 -13 l-124 0 78 -78 77 -77
-30 -52 -29 -51 -49 13 c-27 7 -74 31 -105 53 l-55 41 -79 -31 c-43 -17 -80
-33 -82 -35 -3 -2 6 -37 19 -79 23 -71 28 -79 83 -122 l59 -45 63 31 c61 30
65 31 130 20 57 -10 68 -15 81 -39 20 -40 19 -43 -32 -115 l-46 -64 -81 0 -82
0 -167 167 -168 168 0 158 0 159 -27 -7 c-15 -3 -41 -12 -59 -20 -39 -16 -37
-7 -61 -339 l-17 -248 -148 -130 -148 -130 0 -314 c0 -229 -3 -314 -11 -314
-7 0 -43 9 -80 20 l-69 21 0 314 0 313 165 152 c91 83 167 161 169 173 3 12
12 135 21 272 21 345 15 319 81 345 l54 22 0 64 c0 35 -3 64 -7 64 -3 0 -62
-25 -130 -56 -101 -47 -123 -61 -123 -78 0 -11 -7 -147 -16 -301 l-16 -280
-169 -170 -169 -170 0 -308 0 -307 -27 6 c-16 4 -46 12 -68 18 l-40 12 -3 329
-2 330 165 165 165 165 15 290 c9 160 18 295 20 302 2 6 55 39 119 74 l115 63
18 98 18 98 82 39 c46 22 83 45 83 51 0 6 -13 30 -29 54 l-29 42 55 72 c30 40
58 72 62 72 3 0 44 -10 90 -22z m706 -1105 c-26 -43 -49 -80 -52 -83 -2 -2
-20 4 -39 15 -35 18 -35 19 -32 79 l3 61 80 5 c44 3 82 4 84 3 2 -1 -18 -37
-44 -80z m-653 -445 c-2 -34 -9 -69 -15 -77 -6 -7 -66 -59 -132 -114 l-120
-100 -5 -296 -5 -297 -77 24 -78 24 0 293 0 294 154 127 c151 125 154 128 160
173 4 25 9 59 12 74 l6 28 51 -45 52 -44 -3 -64z m258 -210 l0 -67 -115 -96
-115 -96 0 -251 c0 -234 -1 -250 -17 -245 -10 2 -46 13 -80 23 l-63 19 0 266
0 266 121 97 c66 54 124 109 130 123 5 13 9 43 9 66 0 23 3 53 7 66 6 22 9 20
64 -40 l58 -64 1 -67z m270 -197 l0 -57 -104 -89 -105 -90 0 -209 c-1 -189 -2
-208 -18 -202 -9 4 -45 14 -80 22 l-63 16 0 224 0 223 120 103 c97 83 120 108
120 129 0 15 3 40 6 57 l6 31 59 -51 c59 -51 59 -51 59 -107z m-1170 -524
l325 -112 3 -83 c2 -45 0 -82 -4 -82 -3 0 -44 30 -91 66 -93 73 -83 72 -130 6
-16 -23 -15 -25 93 -127 l109 -103 -47 -48 -46 -47 -101 94 c-56 52 -105 95
-109 96 -4 1 -25 -13 -47 -32 l-40 -34 99 -100 c55 -55 98 -102 95 -104 -2 -3
-32 -19 -66 -35 l-61 -31 -59 52 c-33 29 -150 130 -261 226 -111 96 -202 176
-202 179 0 2 23 48 51 101 126 235 130 242 147 236 10 -3 163 -56 342 -118z
m918 -719 l171 -303 -25 -110 c-13 -60 -49 -230 -78 -376 -50 -242 -63 -288
-147 -525 -51 -142 -138 -378 -194 -524 l-101 -265 -154 4 c-85 2 -172 6 -194
10 l-38 6 -190 510 -190 510 -69 360 c-38 198 -69 368 -69 378 0 9 44 83 97
163 l97 145 46 -50 46 -51 187 101 186 101 93 109 93 109 131 0 130 0 172
-302z m985 -129 c54 -6 100 -17 103 -23 2 -6 14 -61 27 -123 l24 -112 -189
-463 c-241 -591 -267 -655 -268 -643 -1 18 131 1340 136 1364 4 20 9 22 37 18
18 -3 76 -11 130 -18z m-452 -895 c-23 -335 -44 -642 -47 -681 l-6 -73 -58 0
c-95 0 -90 8 -90 -160 0 -82 -3 -151 -7 -153 -5 -3 -38 -8 -75 -12 l-68 -7 0
515 0 515 60 242 c33 134 62 245 65 249 35 35 261 195 263 186 2 -7 -15 -286
-37 -621z m99 -904 c0 -138 0 -140 -22 -141 -13 0 -47 -4 -75 -8 l-53 -7 0
148 0 148 75 0 75 0 0 -140z m280 21 l0 -118 -46 -7 c-91 -12 -84 -21 -84 119
l0 125 65 0 65 0 0 -119z"/>
<path d="M1407 5026 c83 -140 179 -283 184 -273 7 13 79 268 79 280 0 4 -61 7
-135 7 -112 0 -135 -2 -128 -14z"/>
<path d="M996 1976 l-77 -145 51 -182 c29 -99 50 -182 48 -184 -2 -3 -33 50
-69 117 l-64 121 -95 28 c-52 16 -96 29 -97 29 -1 0 -29 -52 -62 -115 l-62
-115 65 -123 c64 -123 64 -124 59 -188 l-5 -64 55 54 56 55 3 109 3 109 33 13
32 14 81 -161 80 -161 -35 -36 -36 -37 31 -37 31 -38 -17 -67 -16 -66 42 -108
c23 -60 43 -107 45 -106 1 2 21 50 44 107 l41 105 -17 69 -17 68 32 33 31 32
-32 44 -32 43 79 154 c44 84 81 153 82 153 1 0 14 -5 28 -12 17 -8 28 -24 36
-52 40 -153 44 -162 89 -214 l45 -54 6 74 c4 60 14 91 56 179 l50 105 -54 107
c-62 124 -50 119 -196 79 l-99 -27 -32 -85 c-30 -80 -75 -173 -76 -159 0 4 20
91 45 193 25 103 45 193 45 200 0 13 -134 262 -149 279 -4 4 -42 -58 -85 -137z"/>
</g>
</svg>
