<?xml version="1.0" standalone="no"?>
<!DOCTYPE svg PUBLIC "-//W3C//DTD SVG 20010904//EN"
 "http://www.w3.org/TR/2001/REC-SVG-20010904/DTD/svg10.dtd">
<svg version="1.0" xmlns="http://www.w3.org/2000/svg"
 width="900.000000pt" height="159.000000pt" viewBox="0 0 900.000000 159.000000"
 preserveAspectRatio="xMidYMid meet">
<metadata>
Created by potrace 1.10, written by Peter Selinger 2001-2011
</metadata>
<g transform="translate(0.000000,159.000000) scale(0.100000,-0.100000)"
fill="#ed2026" stroke="none">
<path d="M480 785 l0 -315 278 2 277 3 5 115 5 115 102 3 c120 3 112 13 116
-138 l2 -95 410 -3 c226 -1 421 0 433 3 l24 6 -3 192 c-2 106 -1 194 3 197 11
9 45 -43 53 -80 4 -19 10 -39 14 -45 4 -5 18 -44 31 -85 12 -41 26 -79 31 -85
4 -5 10 -27 14 -48 4 -21 16 -42 26 -47 25 -14 95 -12 106 3 5 6 24 57 42 112
17 55 36 107 40 115 5 9 12 31 16 50 4 19 11 41 16 50 5 8 14 28 19 44 21 58
30 8 32 -184 l3 -195 275 0 275 0 2 95 c4 150 -4 140 117 140 l104 0 6 -27 c4
-14 7 -63 6 -107 -1 -45 -1 -87 -1 -94 1 -10 60 -12 279 -10 l277 3 2 80 c1
44 2 90 2 103 1 22 4 22 119 22 148 0 150 -1 154 -120 l3 -85 858 0 859 0 24
28 c24 28 24 30 24 243 l0 214 123 1 c67 0 138 2 157 3 60 4 60 3 60 -220 l0
-203 34 -35 34 -36 1045 2 1045 3 21 25 c19 24 20 36 20 285 0 249 -1 261 -20
285 l-21 25 -195 0 -195 0 -24 -28 c-24 -28 -24 -31 -24 -232 0 -172 -2 -206
-16 -219 -23 -24 -710 -24 -754 -1 l-30 16 0 154 c0 142 2 155 19 165 11 6 87
10 175 10 l155 0 6 33 c4 18 5 49 3 68 l-3 34 -217 0 c-287 0 -262 24 -266
-258 -2 -183 -5 -214 -19 -224 -23 -18 -570 -18 -608 -1 l-25 11 0 169 0 168
175 0 c160 0 175 2 176 18 5 80 4 104 -1 112 -4 7 -216 10 -637 8 -604 -3
-632 -4 -652 -22 -20 -18 -21 -28 -21 -232 0 -213 0 -214 -23 -229 -21 -13
-68 -15 -328 -13 -296 3 -304 4 -306 23 -1 14 23 42 78 90 44 39 94 83 112 98
17 16 63 58 100 94 l68 64 -3 62 -3 62 -276 3 c-216 2 -278 0 -281 -10 -3 -7
-2 -38 1 -68 l6 -55 165 -1 c111 -1 165 -5 168 -13 4 -12 -304 -317 -342 -338
-26 -15 -249 -17 -277 -3 -13 7 -19 21 -19 45 0 47 -17 86 -48 111 l-26 21 23
12 c32 18 51 70 51 145 0 70 -10 108 -37 134 -15 15 -45 17 -257 17 l-241 0
-3 -234 c-1 -152 -6 -239 -13 -248 -15 -18 -249 -19 -267 -1 -9 9 -12 70 -12
211 0 285 4 281 -272 275 -160 -3 -167 -4 -192 -27 l-26 -24 0 -212 c0 -151
-3 -214 -12 -223 -8 -8 -53 -12 -134 -12 -98 0 -126 3 -138 16 -14 13 -16 50
-16 244 0 199 -2 229 -16 234 -31 12 -211 7 -221 -6 -5 -7 -18 -40 -28 -73
-11 -33 -23 -64 -27 -70 -4 -5 -8 -15 -8 -23 0 -24 -42 -112 -54 -112 -6 0
-29 56 -51 123 -58 179 -46 168 -179 165 l-111 -3 -3 -235 c-2 -207 -4 -237
-19 -247 -13 -10 -88 -13 -295 -13 -264 0 -278 1 -288 19 -6 12 -10 102 -10
224 l0 204 -26 24 c-25 23 -32 24 -188 27 -190 4 -223 -2 -253 -48 -22 -31
-23 -42 -23 -229 0 -140 -3 -200 -12 -209 -17 -17 -249 -17 -266 0 -9 9 -12
77 -12 244 0 261 6 244 -81 244 l-49 0 0 -315z m768 162 c13 -10 16 -75 4 -94
-6 -10 -123 -18 -199 -14 -9 1 -13 19 -13 56 0 62 1 63 100 67 62 3 89 0 108
-15z m2079 9 c11 -4 24 -18 28 -33 8 -32 -3 -83 -18 -84 -74 -4 -193 4 -199
14 -12 19 -9 72 5 89 6 9 21 18 31 20 32 5 129 2 153 -6z m853 -16 c15 -24 12
-40 -12 -61 -19 -15 -40 -18 -134 -19 l-111 0 -6 30 c-6 30 0 60 14 70 4 3 59
3 123 0 89 -4 119 -9 126 -20z m1641 -9 c14 -34 7 -297 -7 -311 -14 -14 -104
-24 -148 -16 -63 12 -66 21 -66 179 0 78 5 149 10 157 6 10 32 17 77 20 99 7
123 2 134 -29z m2535 18 c11 -9 14 -45 14 -164 0 -183 2 -180 -110 -180 -113
0 -111 -4 -108 184 3 145 4 156 24 166 27 13 162 9 180 -6z"/>
</g>
</svg>
