<?xml version="1.0" standalone="no"?>
<!DOCTYPE svg PUBLIC "-//W3C//DTD SVG 20010904//EN"
 "http://www.w3.org/TR/2001/REC-SVG-20010904/DTD/svg10.dtd">
<svg version="1.0" xmlns="http://www.w3.org/2000/svg"
 width="855.000000pt" height="498.000000pt" viewBox="0 0 855.000000 498.000000"
 preserveAspectRatio="xMidYMid meet">
<metadata>
Created by potrace 1.10, written by Peter Selinger 2001-2011
</metadata>
<g transform="translate(0.000000,498.000000) scale(0.100000,-0.100000)"
fill="#000000" stroke="none">
<path d="M4460 4783 c-47 -8 -107 -18 -135 -22 -27 -4 -69 -19 -92 -34 -24
-15 -47 -27 -53 -27 -10 0 -15 -19 -25 -91 -4 -30 -14 -54 -29 -68 -29 -28
-105 -51 -164 -51 -25 0 -73 -6 -106 -14 -34 -7 -97 -21 -141 -31 -44 -9 -95
-23 -113 -31 -18 -8 -43 -14 -55 -14 -12 0 -34 -6 -49 -14 -15 -8 -40 -17 -57
-21 -17 -4 -33 -11 -36 -16 -4 -5 -13 -9 -21 -9 -8 0 -65 -25 -127 -55 -221
-108 -285 -152 -421 -287 -83 -83 -120 -108 -159 -108 -14 0 -49 -7 -78 -16
-30 -8 -76 -21 -104 -29 -101 -29 -190 -58 -199 -67 -6 -4 -16 -8 -24 -8 -33
0 -201 -93 -255 -141 -94 -84 -121 -162 -84 -242 18 -38 79 -105 127 -140 33
-24 205 -107 222 -107 8 0 18 -4 24 -9 5 -4 43 -18 84 -31 41 -12 86 -27 100
-32 14 -6 45 -14 70 -18 25 -5 68 -14 95 -20 28 -7 60 -14 71 -16 12 -2 53
-35 90 -72 57 -56 120 -111 199 -170 29 -22 134 -82 144 -82 6 0 11 -3 11 -8
0 -4 21 -17 48 -29 26 -12 73 -33 104 -47 91 -42 290 -106 393 -127 22 -4 60
-12 85 -18 94 -20 178 -34 265 -41 50 -5 142 -14 205 -20 96 -10 146 -9 300 5
175 15 320 35 420 57 25 5 63 13 85 17 22 4 56 12 75 18 19 6 69 21 110 34 41
12 79 26 85 30 5 5 15 9 23 9 24 0 320 141 345 164 7 6 39 29 72 51 33 22 103
81 156 132 53 51 107 94 120 97 13 3 47 10 74 16 28 6 69 15 93 20 23 5 51 14
61 20 11 5 30 10 43 10 13 0 36 7 52 15 15 8 36 15 45 15 10 0 26 7 37 15 10
8 27 15 37 15 11 0 31 6 45 14 15 8 38 19 52 25 64 28 164 92 200 130 42 43
62 92 62 152 0 66 -12 91 -71 150 -78 77 -228 154 -401 204 -30 9 -66 21 -80
27 -14 5 -45 14 -70 18 -50 10 -116 26 -170 42 -22 7 -62 39 -110 88 -116 119
-240 206 -405 284 -44 21 -88 42 -97 47 -32 16 -178 67 -268 92 -113 32 -136
38 -185 47 -27 5 -70 14 -95 19 -25 6 -61 10 -81 11 l-36 0 -6 68 c-3 37 -12
85 -19 107 -11 32 -19 40 -45 46 -18 3 -54 25 -81 48 -55 45 -58 46 -182 24z
m-53 -115 c33 -31 34 -32 79 -20 44 12 74 10 126 -10 18 -7 33 -6 48 2 33 18
72 4 68 -23 -2 -12 -11 -23 -23 -25 -32 -6 -40 -20 -22 -39 23 -26 7 -44 -35
-41 -65 4 -84 -35 -53 -109 23 -55 20 -63 -24 -63 -50 0 -56 -9 -25 -39 28
-27 30 -43 8 -62 -14 -11 -22 -10 -56 9 -37 20 -42 20 -70 6 -25 -13 -29 -20
-23 -42 11 -46 29 -56 102 -57 56 0 68 -3 71 -17 6 -32 -30 -67 -68 -68 -30 0
-44 9 -103 68 l-67 69 0 62 c0 46 -4 63 -15 67 -33 13 -43 -14 -47 -127 l-3
-110 -68 -64 -67 -65 0 -119 c0 -128 -5 -142 -46 -120 -23 12 -24 16 -24 135
l0 122 72 66 71 65 9 123 c9 110 12 126 34 149 42 44 27 69 -27 42 -19 -9 -39
-24 -45 -32 -7 -8 -15 -67 -19 -131 l-7 -115 -69 -71 -69 -72 0 -120 c0 -71
-4 -123 -10 -127 -6 -3 -19 -3 -30 0 -19 6 -20 15 -20 141 l0 135 70 74 70 74
0 68 c0 37 3 92 7 121 5 49 9 55 50 79 46 27 63 49 63 83 0 13 12 27 30 38 24
14 30 24 30 51 0 74 69 95 127 39z m-375 -279 c3 -10 -7 -112 -18 -165 -2 -11
-30 -47 -62 -80 -32 -32 -64 -68 -70 -79 -9 -19 -27 -22 -169 -34 -87 -7 -177
-15 -200 -18 -37 -4 -43 -3 -43 13 0 34 174 196 272 253 32 19 136 71 208 104
42 19 77 21 82 6z m-276 -21 c-8 -13 -32 -32 -53 -43 -89 -46 -287 -229 -315
-291 -6 -14 -23 -27 -37 -30 -14 -3 -45 -9 -68 -15 -23 -5 -60 -9 -81 -9 -22
0 -75 -6 -118 -14 -145 -26 -184 -29 -184 -11 0 8 8 23 18 33 24 24 173 136
192 145 8 4 29 16 45 26 44 28 161 85 230 112 33 13 64 27 70 31 5 4 18 8 28
8 10 0 33 6 50 13 45 19 189 60 230 66 4 1 1 -9 -7 -21z m1329 7 c22 -4 56
-12 75 -20 19 -7 64 -22 100 -34 148 -47 271 -103 416 -189 76 -46 214 -157
214 -173 0 -22 -11 -22 -230 11 -41 6 -109 15 -150 21 l-75 11 -105 111 c-102
107 -247 227 -276 227 -8 0 -14 4 -14 9 0 5 -8 17 -17 27 -16 16 -16 16 2 11
11 -3 38 -9 60 -12z m-159 -33 c77 -38 128 -66 134 -72 3 -3 25 -19 50 -35 49
-33 210 -189 210 -204 0 -20 -23 -22 -118 -10 -53 6 -166 14 -251 18 l-153 6
-20 54 c-20 52 -20 57 -4 121 9 38 16 81 16 98 0 53 9 65 45 59 18 -3 59 -19
91 -35z m-278 -99 c-2 -17 -10 -29 -20 -31 -14 -3 -18 3 -18 27 0 25 4 31 21
31 16 0 20 -5 17 -27z m-268 -196 c0 -10 -25 -43 -55 -72 l-55 -54 0 -114 c0
-97 -3 -116 -16 -121 -10 -4 -25 1 -35 10 -16 15 -19 33 -19 128 0 124 1 125
83 190 26 20 47 43 47 50 0 6 6 18 12 24 10 10 15 9 25 -5 7 -9 13 -25 13 -36z
m108 -82 c3 -23 -6 -37 -48 -76 l-51 -47 1 -84 c1 -45 1 -89 1 -95 -1 -19 -48
-16 -55 3 -10 25 -7 204 3 223 6 10 28 30 50 46 27 18 41 35 41 50 0 12 3 25
7 28 13 13 48 -20 51 -48z m572 -5 c351 -22 334 -18 369 -97 12 -26 29 -62 38
-79 8 -17 15 -47 16 -65 2 -33 1 -34 -33 -33 -186 5 -449 16 -507 20 l-71 6
-5 51 c-5 62 -24 138 -38 152 -10 10 -12 48 -2 58 4 4 20 5 37 3 17 -3 105
-10 196 -16z m-1192 -2 c8 -8 12 -51 12 -129 l0 -118 -42 -5 c-24 -3 -133 -8
-243 -11 -110 -3 -221 -8 -247 -12 -57 -7 -69 9 -44 61 9 19 16 37 16 40 0 19
67 139 82 147 10 5 98 14 196 20 97 5 182 12 187 14 23 8 72 4 83 -7z m722
-57 c14 -35 5 -57 -39 -90 -30 -23 -31 -26 -31 -108 l0 -84 -32 3 -33 3 -3 90
-3 90 58 62 c32 33 61 62 64 62 4 1 12 -12 19 -28z m-1287 11 c3 -4 -4 -25
-15 -47 -11 -22 -30 -71 -43 -110 l-23 -70 -49 -3 c-26 -1 -129 -9 -229 -17
-225 -19 -254 -19 -254 -1 0 15 41 95 73 143 28 41 104 62 298 83 48 6 97 14
110 19 29 12 126 14 132 3z m2347 -8 c58 -8 137 -22 175 -30 39 -8 83 -14 98
-14 38 0 80 -23 103 -57 29 -43 72 -137 67 -145 -6 -11 -102 -9 -188 2 -38 5
-130 12 -203 16 -133 7 -133 7 -148 35 -7 15 -14 35 -14 43 0 9 -13 45 -30 79
-16 35 -30 69 -30 75 0 16 46 15 170 -4z m635 -128 c138 -41 219 -72 310 -117
100 -50 133 -75 117 -91 -9 -9 -21 -9 -49 1 -20 8 -62 17 -92 21 -131 18 -231
31 -310 42 -83 10 -83 11 -98 47 -8 20 -24 55 -35 78 -11 23 -17 46 -14 51 5
9 80 -5 171 -32z m-3615 22 c-1 -7 -9 -31 -20 -53 -11 -22 -19 -47 -20 -56 0
-34 -37 -51 -127 -60 -48 -5 -119 -14 -158 -20 -38 -6 -99 -15 -135 -20 -36
-5 -77 -14 -92 -20 -15 -6 -35 -8 -44 -5 -14 5 -13 10 10 31 15 14 31 25 36
25 5 0 15 6 22 13 7 6 31 20 53 30 22 10 53 25 68 33 16 8 33 14 39 14 5 0 24
6 41 14 18 8 59 22 92 31 33 9 78 23 100 30 74 25 135 31 135 13z m1405 -128
c142 -50 150 -53 163 -63 18 -14 15 -47 -5 -47 -9 0 -24 7 -34 16 -10 9 -23
13 -28 9 -20 -12 -11 -41 19 -65 28 -24 39 -63 21 -74 -5 -3 -28 12 -53 33
-37 33 -46 37 -61 26 -23 -17 -22 -22 13 -57 33 -33 36 -61 7 -66 -19 -4 -60
27 -166 125 l-65 60 20 39 c51 100 55 106 72 99 9 -4 53 -19 97 -35z m-245
-61 c0 -6 -7 -17 -15 -25 -8 -9 -15 -19 -15 -23 0 -5 36 -43 81 -85 l80 -76
-22 -38 c-48 -80 -19 -75 -352 -71 -282 4 -299 5 -313 23 -19 27 -20 268 -1
284 16 14 87 18 350 20 142 1 207 -1 207 -9z m1680 -9 c23 -38 19 -274 -4
-298 -3 -3 -110 -6 -238 -6 l-233 -1 -3 30 c-6 45 -19 55 -78 55 -29 0 -64 4
-78 10 -23 8 -26 15 -26 58 0 27 3 77 7 112 l6 63 320 -5 c253 -4 321 -8 327
-18z m-2310 -145 l0 -146 -172 7 c-95 3 -216 12 -268 18 l-95 11 -3 107 c-2
95 -1 107 15 112 30 8 232 26 328 29 50 2 114 4 143 5 l52 2 0 -145z m2785
123 c66 -6 126 -15 133 -21 15 -12 17 -169 2 -196 -8 -15 -31 -21 -122 -29
-146 -15 -380 -24 -399 -17 -11 4 -14 31 -12 143 1 75 2 138 2 140 2 5 276 -8
396 -20z m-3400 -30 c2 -7 5 -53 8 -101 3 -71 1 -90 -11 -95 -15 -5 -252 22
-332 38 -25 6 -65 13 -89 16 -58 9 -133 36 -133 49 0 22 146 57 309 75 51 6
109 14 130 19 57 14 113 13 118 -1z m3764 -3 c247 -32 411 -68 411 -90 0 -15
-84 -40 -195 -59 -152 -26 -298 -46 -332 -46 l-33 0 0 105 c0 91 2 105 17 105
9 0 68 -7 132 -15z m-1911 -92 c17 -25 72 -123 110 -196 12 -23 12 -40 3 -95
-29 -176 -62 -302 -108 -409 -7 -17 -13 -38 -13 -46 0 -9 -4 -18 -9 -22 -5 -3
-12 -19 -16 -36 -4 -17 -13 -42 -21 -57 -8 -15 -14 -34 -15 -42 0 -8 -8 -28
-18 -45 -18 -30 -19 -30 -92 -26 -79 3 -99 12 -99 43 0 11 -6 32 -14 46 -7 15
-19 43 -25 62 -19 55 -58 160 -81 220 -22 57 -39 131 -71 312 -9 54 -8 58 21
104 36 57 53 69 79 55 14 -8 31 -4 72 19 30 16 64 33 75 39 12 5 38 30 59 55
36 44 40 46 91 46 46 0 55 -3 72 -27z m-2278 -123 c70 -17 227 -40 271 -41 74
-1 182 -24 190 -39 38 -77 59 -132 53 -141 -7 -12 -68 -5 -129 16 -22 7 -67
21 -100 30 -33 10 -74 24 -92 32 -17 7 -34 13 -38 13 -18 0 -196 92 -219 114
-27 24 -19 41 14 29 8 -3 31 -9 50 -13z m4544 11 c19 -30 -198 -139 -369 -187
-33 -9 -78 -22 -100 -29 -22 -8 -59 -16 -82 -20 -54 -8 -55 2 -11 95 l32 67
101 12 c55 6 132 16 170 22 39 6 101 15 139 20 38 5 76 14 85 19 20 12 28 12
35 1z m-1755 -56 c21 -20 26 -101 8 -138 -18 -39 -29 -65 -58 -137 -12 -30
-28 -69 -35 -87 -8 -17 -14 -36 -14 -41 0 -6 -7 -23 -14 -39 -8 -15 -18 -37
-21 -47 -4 -15 -8 -17 -17 -8 -9 9 -8 48 5 159 9 82 19 183 22 225 3 43 11 91
16 108 10 28 13 30 52 24 23 -4 48 -12 56 -19z m-2086 -36 c51 -5 152 -13 226
-17 l133 -7 20 -55 c11 -30 28 -76 39 -102 10 -26 19 -54 19 -62 0 -19 -37
-21 -92 -5 -21 5 -75 14 -120 19 -88 10 -225 33 -270 45 -25 6 -40 23 -75 80
-17 29 -32 62 -39 90 -6 23 -3 25 31 25 20 0 78 -5 128 -11z m3222 1 c5 -9
-30 -96 -45 -110 -3 -3 -13 -17 -23 -32 -19 -31 -74 -58 -116 -58 -14 0 -62
-7 -106 -15 -111 -20 -276 -45 -297 -45 -22 0 -23 23 -4 58 26 49 46 100 46
116 0 9 7 27 15 40 14 22 24 23 158 30 78 4 171 11 207 15 96 12 158 12 165 1z
m-607 -55 c2 -15 -1 -38 -6 -49 -6 -12 -22 -46 -36 -76 -13 -30 -31 -62 -38
-71 -15 -19 -124 -34 -306 -44 -129 -6 -138 -1 -107 63 10 20 24 51 31 67 6
17 21 50 31 75 l20 45 194 11 c107 6 199 10 204 9 6 -1 11 -14 13 -30z m-1663
6 l60 -6 8 -50 c5 -27 15 -78 22 -113 18 -79 12 -95 -29 -88 -17 3 -89 8 -161
11 -142 6 -307 23 -321 34 -11 7 -63 111 -81 161 -28 76 -40 73 215 65 125 -4
254 -10 287 -14z m914 -128 c0 -54 -8 -179 -17 -278 -17 -177 -17 -179 -42
-185 -23 -5 -25 -11 -28 -68 l-3 -62 -35 0 -36 0 4 233 c4 185 8 241 21 276 9
24 17 56 17 71 0 21 12 39 48 69 26 23 53 41 60 41 9 0 12 -26 11 -97z m1161
-103 c0 -14 -71 -81 -123 -117 -23 -15 -44 -30 -47 -33 -7 -7 -41 -28 -65 -40
-11 -6 -33 -19 -50 -29 -29 -19 -86 -47 -155 -77 -19 -9 -48 -22 -63 -30 -16
-8 -33 -14 -39 -14 -5 0 -24 -6 -41 -13 -48 -20 -127 -45 -170 -52 -20 -4 -40
-11 -43 -16 -7 -12 -64 -11 -64 1 0 6 11 16 25 22 14 6 25 15 25 20 0 4 5 8
11 8 30 0 198 151 309 278 33 38 39 40 105 46 39 4 99 11 135 17 36 6 101 15
144 20 44 5 81 11 84 14 9 9 22 5 22 -5z m-2776 -26 c43 -8 99 -14 125 -14 76
-1 123 -16 145 -47 57 -84 292 -290 359 -316 21 -8 14 -27 -10 -27 -8 0 -38 7
-67 16 -28 9 -73 23 -101 31 -50 15 -104 34 -162 59 -17 8 -34 14 -38 14 -12
0 -244 119 -255 130 -3 3 -18 14 -35 24 -65 42 -165 128 -165 142 0 14 10 15
63 9 34 -3 97 -13 141 -21z m665 -65 c131 -10 164 -16 168 -28 7 -23 33 -91
48 -126 7 -16 20 -50 30 -75 9 -25 23 -58 31 -73 24 -49 19 -67 -20 -67 -19 0
-37 4 -41 9 -3 5 -20 13 -38 17 -42 9 -176 74 -221 107 -146 105 -266 216
-266 245 0 16 8 15 309 -9z m1541 8 c0 -10 -66 -81 -138 -148 -63 -58 -217
-154 -232 -144 -5 3 -10 17 -10 30 0 41 -11 55 -41 55 -16 0 -32 6 -35 13 -2
7 10 49 29 93 39 90 29 86 207 102 151 14 220 14 220 -1z m-562 -344 c-3 -55
-4 -58 -30 -61 -28 -3 -28 -3 -28 57 l0 61 30 0 31 0 -3 -57z m122 12 c0 -43
-1 -45 -30 -45 -29 0 -30 2 -30 45 0 43 1 45 30 45 29 0 30 -2 30 -45z"/>
<path d="M4340 4503 c0 -26 77 -112 83 -93 2 8 10 32 16 52 7 21 9 42 6 48 -3
5 -28 10 -56 10 -40 0 -49 -3 -49 -17z"/>
<path d="M4226 3220 c-27 -53 -28 -62 -17 -84 8 -14 10 -33 7 -43 -7 -16 -9
-16 -19 -2 -7 9 -27 24 -45 33 -32 17 -35 17 -53 0 -11 -9 -24 -34 -30 -54 -9
-31 -8 -43 7 -71 9 -19 20 -47 23 -63 4 -16 11 -31 17 -33 15 -5 34 41 34 82
0 56 31 46 63 -19 22 -45 25 -60 17 -82 -7 -18 -7 -30 0 -39 5 -7 8 -25 4 -41
-5 -26 18 -104 31 -104 13 0 35 77 29 102 -3 16 -1 35 5 42 8 10 8 22 1 40 -8
22 -5 37 17 82 33 67 51 67 74 -1 9 -28 23 -50 30 -50 6 0 18 18 26 40 7 22
18 50 24 62 9 16 7 30 -7 62 -9 22 -24 43 -32 46 -15 5 -77 -12 -99 -28 -16
-11 -22 13 -10 41 9 19 5 34 -19 82 -16 33 -33 60 -39 60 -5 0 -23 -27 -39
-60z"/>
<path d="M145 2018 c-3 -13 -4 -318 -3 -678 l3 -655 105 0 105 0 3 664 c1 482
-1 668 -9 677 -8 10 -38 14 -105 14 -89 0 -94 -1 -99 -22z"/>
<path d="M789 1701 c-113 -21 -211 -113 -230 -216 -17 -88 -25 -80 80 -83 56
-2 98 1 106 8 7 6 16 26 19 45 12 61 80 97 145 75 48 -16 71 -56 71 -125 l0
-53 -47 -22 c-124 -57 -181 -87 -219 -112 -122 -82 -184 -190 -184 -323 0
-117 37 -183 124 -219 83 -34 219 -11 298 52 20 17 36 9 49 -24 9 -24 11 -25
100 -22 l90 3 -1 404 c-1 369 -2 408 -20 457 -35 102 -111 151 -247 158 -48 3
-109 1 -134 -3z m189 -653 l3 -126 -52 -46 c-42 -38 -58 -46 -90 -46 -25 0
-51 8 -69 22 -27 19 -30 28 -30 75 0 40 6 64 25 93 34 55 173 162 200 156 6
-2 11 -55 13 -128z"/>
<path d="M2187 1700 c-39 -10 -127 -66 -127 -82 0 -4 -9 -8 -20 -8 -15 0 -20
7 -20 28 0 44 -16 52 -107 52 -77 0 -83 -1 -88 -22 -3 -13 -4 -239 -3 -503 l3
-480 100 0 100 0 3 391 2 392 33 25 c18 14 51 30 73 37 34 10 46 10 72 -4 l32
-16 2 -413 3 -412 100 0 100 0 3 391 2 392 33 25 c18 14 51 30 73 37 34 10 46
10 72 -4 l32 -16 2 -413 3 -412 100 0 100 0 3 445 c3 441 3 445 -19 486 -12
22 -37 51 -56 64 -30 21 -47 24 -117 24 -87 0 -124 -14 -186 -71 -34 -31 -61
-29 -82 6 -9 16 -27 36 -40 45 -30 20 -130 28 -181 16z"/>
<path d="M3310 1700 c-62 -11 -145 -56 -174 -95 -45 -58 -87 -178 -69 -196 5
-5 50 -9 103 -7 l93 3 17 50 c13 39 24 54 51 67 89 46 169 -11 169 -120 0 -48
-2 -53 -27 -63 -55 -20 -197 -93 -242 -122 -65 -43 -104 -85 -143 -153 -32
-57 -33 -63 -33 -171 0 -109 1 -112 31 -150 75 -94 204 -109 342 -40 23 12 42
25 42 29 0 20 30 5 42 -19 13 -27 15 -28 103 -28 l90 0 0 415 c0 408 0 416
-22 463 -44 93 -115 134 -245 141 -46 3 -103 1 -128 -4z m188 -650 c3 -137 3
-137 -72 -191 -48 -35 -101 -38 -140 -8 -23 18 -26 28 -26 78 0 64 23 105 91
166 42 38 121 86 134 82 6 -2 11 -56 13 -127z"/>
<path d="M4293 1700 c-49 -10 -87 -33 -125 -73 -30 -33 -48 -29 -48 12 0 43
-16 51 -107 51 -77 0 -83 -1 -88 -22 -3 -13 -4 -239 -3 -503 l3 -480 100 0
100 0 5 365 c4 325 7 369 23 397 27 50 75 66 175 58 l82 -6 0 93 c0 60 -4 98
-12 106 -13 13 -43 14 -105 2z"/>
<path d="M5510 1701 c-81 -14 -153 -66 -191 -135 -42 -78 -51 -159 -47 -411 3
-163 9 -251 17 -275 49 -131 84 -167 199 -206 71 -25 280 -6 290 25 2 6 9 11
16 11 26 0 84 79 112 152 26 66 33 525 9 606 -33 114 -74 171 -152 210 -45 24
-180 35 -253 23z m140 -176 c17 -9 39 -33 50 -55 18 -36 20 -59 20 -286 0
-215 -2 -252 -17 -285 -21 -44 -59 -69 -105 -69 -43 0 -73 22 -98 70 -18 36
-20 59 -20 285 0 226 2 249 20 285 33 64 91 85 150 55z"/>
<path d="M6350 1701 c-77 -12 -154 -66 -188 -130 -44 -85 -47 -106 -47 -386 0
-283 2 -297 50 -392 20 -40 91 -102 125 -109 14 -3 35 -10 48 -15 35 -14 172
-11 218 6 126 44 175 110 206 277 6 31 8 68 4 83 l-7 26 -97 -3 -97 -3 -3 -45
c-4 -73 -32 -145 -63 -164 -58 -34 -133 -11 -163 51 -13 28 -16 74 -16 291 l1
257 27 40 c36 52 85 67 138 42 40 -19 64 -65 73 -137 l6 -45 100 0 c119 0 118
-1 85 126 -29 113 -65 164 -147 206 -46 24 -176 37 -253 24z"/>
<path d="M7190 1701 c-117 -20 -178 -80 -221 -213 -17 -53 -19 -91 -19 -304 0
-181 4 -254 14 -286 8 -24 17 -56 20 -72 9 -37 106 -133 142 -141 16 -4 39
-11 52 -16 36 -14 158 -11 217 6 60 18 134 77 160 128 36 69 63 197 50 236 -6
20 -12 22 -103 19 l-97 -3 -6 -60 c-7 -75 -23 -114 -57 -142 -34 -28 -98 -30
-128 -5 -51 43 -54 63 -54 337 0 234 2 259 20 294 28 57 92 76 150 46 33 -17
58 -66 69 -135 l6 -45 100 0 100 0 -2 45 c-6 132 -71 246 -167 290 -49 22
-176 33 -246 21z"/>
<path d="M8030 1701 c-110 -19 -184 -86 -219 -198 -19 -60 -21 -91 -21 -318 0
-230 2 -258 22 -321 17 -55 31 -79 74 -121 28 -29 65 -55 80 -58 16 -4 39 -11
52 -16 30 -12 164 -12 194 0 13 5 35 12 49 15 33 7 113 78 135 119 17 33 27
71 45 167 15 79 5 451 -14 515 -31 102 -76 160 -152 195 -48 22 -175 33 -245
21z m140 -176 c58 -30 65 -63 65 -335 0 -265 -5 -295 -54 -337 -32 -28 -97
-30 -126 -5 -54 46 -55 52 -55 332 0 240 2 264 20 299 28 57 92 76 150 46z"/>
<path d="M4541 1676 c-7 -9 -11 -40 -9 -83 l3 -68 170 -5 c104 -3 170 -9 170
-15 -1 -13 -28 -69 -37 -75 -4 -3 -12 -17 -17 -30 -6 -14 -15 -32 -21 -40 -25
-39 -123 -206 -131 -225 -5 -11 -15 -29 -21 -40 -44 -68 -65 -104 -117 -198
-29 -54 -32 -65 -29 -135 l3 -77 305 0 305 0 0 80 0 80 -184 3 -183 2 6 32 c3
18 10 34 15 38 8 4 53 80 81 135 6 11 19 34 29 50 11 17 29 48 41 70 12 22 35
59 51 83 16 24 29 45 29 47 0 2 27 49 60 105 l61 102 -3 86 -3 87 -281 3
c-234 2 -283 0 -293 -12z"/>
<path d="M4303 296 c-29 -30 -53 -58 -53 -63 0 -5 24 -33 54 -62 l53 -53 57
55 c31 31 56 59 56 64 0 9 -102 113 -110 113 -3 -1 -29 -25 -57 -54z"/>
<path d="M1826 251 c-4 -5 -3 -16 0 -25 6 -15 107 -16 1108 -14 1093 3 1101 3
1101 23 0 20 -8 20 -1102 23 -658 1 -1104 -2 -1107 -7z"/>
<path d="M4704 245 c-3 -8 -3 -19 1 -25 4 -7 340 -10 1074 -10 923 0 1070 2
1081 15 6 8 9 19 5 25 -4 7 -345 10 -1081 10 -930 0 -1075 -2 -1080 -15z"/>
</g>
</svg>
