<?xml version="1.0" encoding="UTF-8" standalone="no"?> <!-- Created with Vectornator for iOS (http://vectornator.io/) --><!DOCTYPE svg PUBLIC "-//W3C//DTD SVG 1.1//EN" "http://www.w3.org/Graphics/SVG/1.1/DTD/svg11.dtd">
<svg height="100%" style="fill-rule:evenodd;clip-rule:evenodd;stroke-linecap:round;stroke-linejoin:round;" xmlns:xlink="http://www.w3.org/1999/xlink" xmlns="http://www.w3.org/2000/svg" xml:space="preserve" width="100%" xmlns:vectornator="http://vectornator.io" version="1.1" viewBox="0 0 300 290">
<metadata>
<vectornator:setting key="Units" value="Points"/>
<vectornator:setting key="GuidesVisible" value="1"/>
<vectornator:setting key="RulersVisible" value="1"/>
<vectornator:setting key="SnapToGuides" value="1"/>
<vectornator:setting key="DynamicGuides" value="1"/>
</metadata>
<defs/>
<g id="Untitled" vectornator:layerName="Untitled">
<path d="M141.5+31.2C126.4+41.6+119.6+48.2+118+54.1C116.3+60.3+118+65.5+122.6+68.2C124.5+69.3+125.9+70.8+125.6+71.4C112.6+101.6+109.8+111+109.8+123.1C109.8+132.8+111.2+136.8+116.3+141.2L119.5+143.9L113+150.5C105.2+158.3+99.8+161.2+92.8+161.2C88.6+161.2+85.7+160.2+75.4+155C63.3+148.8+63+148.7+56.6+149.2C46.6+150+38.5+155.6+34.2+164.8C33+167.2+32.9+168.5+33.6+169.8C35.3+172.5+38.6+172.4+47+169.4C54.6+166.7+54.8+166.7+59.1+168.3C61.6+169.2+66.7+172.5+70.5+175.6C74.4+178.7+78.5+181.7+79.7+182.2C81.7+183.2+81.5+183.5+76.1+188.9C70+194.9+66.6+201+64.9+209.2C62.8+218.8+65.5+226.4+70.2+223.9C71.3+223.3+74.5+219.2+77.5+214.7C80.4+210.2+84.2+205.2+85.8+203.7C87.4+202.1+95+198.3+103.1+194.9C111+191.6+118.1+188.6+118.9+188.3C119.6+188+117+191.8+113.1+196.7C102.5+210.2+97+223.7+97+236.6C97+241.2+97.5+243.4+98.9+245.1C101.9+248.7+104+246.7+107.4+237C110.2+229.1+110.8+228.2+123.2+215.1C130.3+207.6+137.7+199.1+139.7+196.2C141.6+193.3+143.4+191.1+143.6+191.3C143.8+191.5+142.9+195.7+141.5+200.6C138.4+211.4+133.4+219.9+124.3+230.3C110.4+246.4+108.5+249.5+111+252.5C112.9+254.8+117.8+254.3+122.9+251.3C132.7+245.7+147.7+232.1+151+226C152.3+223.6+152.4+223.8+154.2+231C156.6+240.8+161+249.6+166.6+255.9C172.2+262.1+177.1+265.2+180.7+264.8C183.1+264.5+183.5+264.1+183.3+261.7C183.2+260.2+180.8+255.2+178+250.5C175.1+245.9+172.2+240.4+171.4+238.3C169.6+233.1+169.7+221.3+171.8+210.5L173.5+201.6L176.8+205.8C183.6+214.4+192.5+217.3+204.6+214.9C208.4+214.2+217.5+213.6+224.9+213.5C237.6+213.5+238.3+213.4+239.7+211.3C241.2+209.1+241+208.8+237.3+205.1C232.5+200.3+229.1+199.3+213+198.4C206+198.1+199.4+197.2+197.9+196.4C193.9+194.4+189.4+188.7+187.6+183.3C185.9+178.1+184+163+184+153.8L184+148.1L187.9+147C193+145.7+196.6+142.7+199.3+137.7C201.3+134+201.5+132.1+201.5+120.5C201.4+104+198.8+93.8+188.3+69.3C188.1+68.7+189.5+67.4+191.5+66.4C196+64.3+200+58.6+200+54.2C200+49.7+197.8+45.9+192.8+41.6C187.5+37+159.9+23+156.2+23C154.4+23+149.4+25.8+141.5+31.2Z" opacity="1" fill="#000000"/>
<path d="M174.1+33.5C191.5+42.7+195+45.2+195+48.6C195+52.3+192.2+56.6+188.5+58.6C184.4+60.8+182.6+60.1+180.1+55.1C178.9+52.9+177.5+50.8+176.9+50.5C174.6+49+174.9+51.2+177.9+56.2C184.8+67.7+192.2+84.4+195.6+96.2C198.7+106.8+199.2+110.1+199.3+120C199.5+130.3+199.2+132+197.1+136.3C193.1+144.6+191.3+145+163.3+144.9C132.8+144.9+125.3+144.1+119.9+140.6C106.7+131.8+109.8+111.1+130.6+68.1C135.2+58.5+138.8+50.5+138.5+50.2C137.6+49.3+135.3+52+133+57C130.9+61.4+130.3+62+127.6+62C123.7+62+120+59.5+120+56.9C120+51.4+126.5+44.6+142.5+33.6C150.4+28.1+154.3+26+156.6+26C158.6+26+165+28.8+174.1+33.5Z" opacity="1" fill="#f95a77"/>
<path d="M124.4+145.6C125.3+145.9+126+146.6+126+147.1C126+148.6+119.8+157.4+115.6+161.8C111.221+166.475+101.976+172.9+94.431+177.119C89.2251+180.029+84.829+181.89+83.4+181.4C82.3+181+77.4+177.6+72.3+173.9C67.3+170.1+62+166.6+60.5+166C56.5+164.5+51+164.8+46.5+166.9C37.2+171.1+34.3+170.2+37.4+164.2C41.3+156.7+53.9+150+61.3+151.5C63+151.9+69.8+154.9+76.4+158.1C85.7+162.8+89.2+164+92.9+164C99.7+164+106.8+160.2+115.2+152.1C119.2+148.2+122.6+145+122.7+145C122.8+145+123.5+145.3+124.4+145.6Z" opacity="1" fill="#f95a77"/>
<path d="M150+147.9C150+149.3+143.3+160.8+139.4+166.2C134+173.4+123.3+182.8+116+186.4C112.4+188.2+104.6+191.6+98.6+194C85.8+199.1+82.8+201.4+76.2+211.8C68.1+224.5+66.3+224.6+67.3+212.7C68.4+198.5+75.8+189.6+95+179.5C107.8+172.8+117.9+164.1+125.6+153.4L130.1+147L140.1+147C145.5+147+150+147.4+150+147.9Z" opacity="1" fill="#f95a77"/>
<path d="M164.6+149.6C165.8+154.5+164.3+181.2+162.2+191C157.9+210.9+152.3+222.2+141.4+233.5C131.2+243.9+116.2+253.6+113.9+251.3C112+249.4+113.9+246.1+121.4+237.6C132.3+225.3+136+220.3+140.1+211.5C145.1+200.7+146.3+194.2+146.3+176.3L146.2+161.2L150.2+154.1L154.1+147L159+147C163.5+147+164+147.2+164.6+149.6Z" opacity="1" fill="#f95a77"/>
<path d="M172.3+156C173.4+167.5+172.4+193.9+170.5+202.5C169.7+206.3+168.5+214.1+167.9+219.7C166.8+228.7+166.9+230.6+168.4+236.4C169.4+240.1+172.3+246.2+175.1+250.6C182.4+262.3+182.8+264.9+176.6+261.1C170.841+257.508+160.825+241.853+161.12+242.786C161.284+243.304+156.29+230.168+155.9+228C154.7+221.4+154.8+220.8+157.3+215.3C164.2+199.8+167+184.4+167+162.2C167+146.9+167+146.9+169.3+147.2C171.3+147.5+171.6+148.2+172.3+156Z" opacity="1" fill="#f95a77"/>
<path d="M182.3+162.3C182.9+180.1+184.6+186.3+190.8+193.1C193.2+195.8+196.2+198.6+197.3+199.2C198.5+199.8+205.7+200.6+213.5+201C227.9+201.7+233.5+203.3+237+207.5C239.6+210.6+236.7+211.5+223.2+211.5C216.2+211.6+206+212+200.5+212.4C192.2+213.1+189.9+213+187.4+211.7C185.709+210.805+182.632+208.078+179.954+205.33C179.034+204.386+178.162+203.44+177.409+202.565C175.946+200.864+174.933+199.43+174.9+198.8C174.6+194.5+175.1+148.7+175.5+148.1C175.7+147.7+177.2+147.5+178.8+147.8L181.8+148.2C181.8+148.2+182.3+162.3+182.3+162.3Z" opacity="1" fill="#f95a77"/>
<path d="M144+175.3C144+184.2+143.9+184.8+140.3+190.9C138.1+194.6+130.9+203.1+123.4+211C119.086+215.465+116.046+218.619+113.803+221.127C108.61+226.933+107.684+229.277+105.1+236.4C103.6+240.2+102+243.5+101.4+243.7C100.7+243.9+99.9+242.5+99.6+240.5C98.3+233.7+100.9+222.3+106.1+211.9C110+204.1+124.2+185.5+130.9+179.4C134+176.5+137.9+172.4+139.5+170.1C141.2+167.9+142.8+166+143.3+166C143.7+166+144+170.2+144+175.3Z" opacity="1" fill="#f95a77"/>
<path d="M176+104.3C183.7+108.3+187.2+118.9+183.6+127.3C181.9+131.6+176+136.6+171+138.1C166.1+139.6+160.6+138.2+156+134.3L152.9+131.7L150.2+134.2C146.3+137.8+143.7+139+139.3+139C127.2+138.9+119.2+124.3+125+112.6C127.9+106.6+132.9+103.6+140+103.5C145+103.5+146.3+103.9+149.8+106.7L153.7+109.9L157+106.5C159+104.5+161.5+102.9+163.4+102.7C170.1+101.9+171.8+102.1+176+104.3Z" opacity="1" fill="#000000"/>
<path d="M135.7+106.5C128.9+108.9+126+113+126+120.5C126+129.8+131.3+136+139.3+136C144+136+146.7+134.7+150.1+130.6L152.7+127.6L157.6+131.9C162.2+136+162.8+136.2+167.6+135.8C176.7+135+182+129+182+119.3C182+110.7+176.5+105+168.1+105C162.3+105+159.4+106.4+156.2+110.9L153.3+114.9L151.1+112C149.9+110.3+147.9+108.4+146.7+107.6C143.2+105.4+139.8+105+135.7+106.5Z" opacity="1" fill="#f2eeee"/>
<path d="M142.1+118.3C140.6+119.8+140.7+121.5+142.6+123.1C144+124.2+144.4+124.1+145.5+122.6C147.8+119.6+144.7+115.7+142.1+118.3ZM159.3+119.6C159+120.4+159.5+121.9+160.4+122.8C161.9+124.3+162.1+124.3+163.6+122.8C165.7+120.7+164.7+118+162+118C160.9+118+159.7+118.7+159.3+119.6Z" opacity="1" fill="#000000"/>
<path d="M206.76+212.07C205.53+212.398+204.064+212.731+202.798+212.83C200.031+213.047+195.747+213.092+192.932+212.83C188.81+212.448+188.338+212.412+185.02+210.239C183.936+209.528+179.284+205.909+177.312+202.508C176.232+200.645+187.772+208.265+187.772+208.521" opacity="1" fill="#ff96a9"/>
<path d="M187.772+233.565C216.171+239.035+216.171+239.035+187.772+233.565" opacity="1" fill="#ff3f62"/>
<path d="M158.899+229.412C158.947+230.279+164.136+242.917+164.729+247.015C164.952+248.557+162.683+244.579+161.758+243.719C161.135+243.14+161.339+243.331+160.25+240.969C159.248+238.794+156.155+231.262+155.663+227.956C155.561+227.27+155.378+224.226+155.261+222.165C155.198+221.043+155.154+220.213+155.154+220.213C155.154+220.213+155.78+217.797+157.507+214.783" opacity="1" fill="#ff96a9"/>
<path d="M140.478+190.103C137.627+191.45+136.291+195.315+134.212+197.406" opacity="1" fill="#ff3f62"/>
<path d="M48.1686+166C48.1338+163.806+53.9207+162.537+58.577+163.239C61.1122+163.621+65.6922+165.608+67.0493+166C75.6763+168.492+78.8059+172.554+83.3658+174.088C85.2942+175.055+87.5267+175.477+88.5284+175.648C89.6295+175.837+89.5411+175.709+92.8842+175.314C95.4479+175.011+99.0261+173.705+99.2887+173.968C99.5514+174.23+97.191+176.226+93.2821+177.717C92.0718+178.575+90.1085+179.462+88.2648+180.243C86.8157+180.857+84.4829+181.478+83.2421+181.478C82.9332+181.478+81.9956+180.751+81.1028+180.243C79.9462+179.585+79.7794+179.07+79.035+178.628C78.5929+178.365+75.693+176.642+72.6301+174.401C70.4444+172.801+69.5241+171.48+67.0493+170.079C64.7284+168.765+62.5279+166.569+60.2895+166C59.0913+165.695+56.4372+165.055+54.2593+165.072" opacity="1" fill="#ff96a9"/>
<path d="M144+181.478C144.052+181.498+143.538+183.985+143.505+184.239C143.257+186.188+139.12+192.407+139.12+192.407C139.12+192.407+135.1+198.469+132.811+201.137C129.018+205.555+127.213+207.137+126.765+207.612C124.996+209.492+120.21+214.831+118.075+216.604C116.341+218.044+111.973+223.095+111.973+223.15" opacity="1" fill="#ff96a9"/>
<path d="M140.478+57.8681C142.007+57.3057+144.453+57.4163+144+59.8815C143.309+63.6453+138.802+71.1347+137.049+76.2593C134.638+83.3045+127.989+105+121.634+102.27" opacity="1" fill="#ff96a9"/>
</g>
</svg>
